<?xml version="1.0" encoding="UTF-8" standalone="no"?>
<svg
   xmlns:dc="http://purl.org/dc/elements/1.1/"
   xmlns:cc="http://creativecommons.org/ns#"
   xmlns:rdf="http://www.w3.org/1999/02/22-rdf-syntax-ns#"
   xmlns:svg="http://www.w3.org/2000/svg"
   xmlns="http://www.w3.org/2000/svg"
   xmlns:xlink="http://www.w3.org/1999/xlink"
   xmlns:sodipodi="http://sodipodi.sourceforge.net/DTD/sodipodi-0.dtd"
   xmlns:inkscape="http://www.inkscape.org/namespaces/inkscape"
   viewBox="0 0 48 48"
   id="svg2"
   version="1.1"
   inkscape:version="1.0.2 (e86c870879, 2021-01-15)"
   sodipodi:docname="branding.svg"
   width="51.200001"
   height="51.200001">
  <g
     id="branding">
    <rect
       ry="1.607222"
       y="0"
       x="0"
       height="48"
       width="48"
       id="rect4176"
       style="opacity:0.00100002;fill:#000000;fill-opacity:1;stroke:none;stroke-width:4;stroke-linecap:round;stroke-linejoin:round;stroke-miterlimit:4;stroke-dasharray:none;stroke-opacity:1" />
    <path
       style="isolation:isolate;fill:url(#linearGradient842);fill-opacity:1;stroke-width:2.94199"
       class="ColorScheme-Text"
       d="m 13.500019,46.496626 c 0.94537,-0.04408 1.80543,-0.564261 2.2765,-1.384197 0.36827,-0.637709 0.47116,-1.392998 0.27971,-2.104168 -0.19117,-0.71121 -0.65652,-1.316601 -1.29574,-1.686905 -0.63905,-0.367345 -1.39889,-0.467264 -2.11149,-0.276233 -0.70977,0.191025 -1.31939,0.65535 -1.68752,1.293081 -0.36822,0.637707 -0.46838,1.392995 -0.27696,2.104168 0.18865,0.711214 0.65684,1.316595 1.29588,1.683969 0.45947,0.267422 0.98952,0.396711 1.51962,0.370285 z m 17.88824,-4.334768 c 0.46508,0 0.91294,-0.185116 1.24262,-0.514286 0.32991,-0.329159 0.51247,-0.7729 0.51247,-1.237247 0,-0.966853 -0.78636,-1.748596 -1.75509,-1.748596 -0.9661,0 -1.74964,0.784668 -1.74964,1.748596 0,0.963928 0.78354,1.74858 1.74964,1.751533 z m -4.41463,-0.446682 c 0.40652,0 0.79793,-0.161633 1.08381,-0.446706 0.28859,-0.288001 0.45068,-0.675929 0.44763,-1.081488 0,-0.843429 -0.6861,-1.525253 -1.53144,-1.525253 -0.84246,0 -1.52563,0.684755 -1.52863,1.525253 0,0.84343 0.68343,1.528194 1.52863,1.528194 z m 9.5447,-0.176373 c 0.54776,0 1.07495,-0.217475 1.46089,-0.602465 0.38877,-0.387898 0.60648,-0.913948 0.60648,-1.460575 0,-0.546611 -0.21771,-1.069704 -0.60648,-1.457655 -0.38594,-0.384986 -0.91313,-0.602459 -1.46089,-0.602459 -0.5477,0 -1.07194,0.217473 -1.46071,0.602459 -0.38875,0.387951 -0.60373,0.911044 -0.60373,1.457655 0,0.546627 0.21498,1.072677 0.60373,1.460575 0.38877,0.385001 0.91301,0.602469 1.46071,0.602465 z m -13.17886,-1.06971 c 0.73608,0 1.33099,-0.593644 1.33099,-1.325418 10e-4,-0.352653 -0.1398,-0.690608 -0.38877,-0.940405 -0.24999,-0.24979 -0.58897,-0.390884 -0.94222,-0.387916 -0.73326,0 -1.32829,0.593618 -1.32829,1.328321 0.001,0.731774 0.59503,1.322466 1.32829,1.325418 z m -10.60516,-1.44 c 0.80697,-0.03831 1.54327,-0.484931 1.94675,-1.184354 0.65678,-1.137302 0.2649,-2.586158 -0.87184,-3.24149 -1.13674,-0.655367 -2.58857,-0.267429 -3.24825,0.866928 -0.31519,0.546622 -0.40053,1.193181 -0.23857,1.801496 0.16505,0.608357 0.56245,1.128488 1.10734,1.442952 0.39752,0.226302 0.84813,0.335038 1.30457,0.314468 z m 7.83981,-0.249798 c 0.30608,0 0.60073,-0.120634 0.81856,-0.33504 0.21515,-0.214531 0.33881,-0.508407 0.33881,-0.814055 0,-0.305643 -0.12066,-0.599516 -0.33881,-0.81405 -0.21783,-0.217472 -0.50947,-0.33796 -0.81856,-0.33796 -0.30352,0 -0.59805,0.123506 -0.81294,0.33796 -0.21791,0.217482 -0.33855,0.508407 -0.33574,0.81405 0,0.634795 0.51542,1.149095 1.14868,1.149095 z M 6.688195,38.176812 c 0.806927,-0.0383 1.540249,-0.484882 1.946653,-1.184327 0.65377,-1.1344 0.26503,-2.583205 -0.871699,-3.241498 -0.544828,-0.314477 -1.195688,-0.399693 -1.805307,-0.238046 -0.609624,0.164708 -1.127944,0.561297 -1.443087,1.107924 -0.656728,1.134396 -0.265043,2.583211 0.871727,3.238586 0.394639,0.229193 0.845244,0.337976 1.301713,0.317361 z m 23.901834,-1.090285 c 0.96615,0 1.75227,-0.784639 1.74945,-1.751522 0,-0.963933 -0.7833,-1.74566 -1.74945,-1.74566 -0.969,0 -1.75511,0.781727 -1.75511,1.74566 0,0.467248 0.18266,0.911025 0.51224,1.240169 0.32979,0.329146 0.77754,0.511353 1.24287,0.511353 z M 18.524389,36.77502 c 0.25917,0.0014 0.50622,-0.0998 0.68896,-0.282135 0.18266,-0.182211 0.28583,-0.429049 0.28583,-0.687669 0,-0.258634 -0.10301,-0.505475 -0.28583,-0.687678 -0.18278,-0.182256 -0.42979,-0.285082 -0.68896,-0.285082 -0.25638,0 -0.50674,0.102984 -0.68924,0.285082 -0.18254,0.182169 -0.28294,0.429044 -0.28294,0.687678 0,0.25862 0.0982,0.50546 0.28294,0.687669 0.18264,0.182219 0.43286,0.285081 0.68924,0.282135 z m 7.65118,-0.132182 c 0.84209,-0.0015 1.52838,-0.684718 1.52838,-1.528168 -0.001,-0.843444 -0.68629,-1.525233 -1.52838,-1.525233 -0.84546,0 -1.53139,0.681789 -1.53139,1.525233 -0.001,0.405562 0.15901,0.793493 0.44758,1.081497 0.28552,0.285057 0.67746,0.446672 1.08381,0.446671 z m 9.53888,-0.176208 c 0.54782,0 1.07495,-0.217493 1.46371,-0.605403 0.38571,-0.384973 0.6038,-0.911011 0.6038,-1.457642 0,-0.546633 -0.21809,-1.069717 -0.6038,-1.457652 -0.38876,-0.38793 -0.91589,-0.605425 -1.46371,-0.605425 -0.54775,0 -1.07188,0.217495 -1.46065,0.605425 -0.38593,0.387935 -0.60378,0.911019 -0.60378,1.457652 0,0.546631 0.21785,1.072669 0.60378,1.457642 0.38877,0.38791 0.9129,0.605403 1.46065,0.605403 z m -13.17322,-1.069724 c 0.73332,-0.0015 1.32543,-0.596579 1.32824,-1.328347 0,-0.731769 -0.59492,-1.325415 -1.32824,-1.328347 -0.35324,0 -0.69204,0.141006 -0.9424,0.390847 -0.25017,0.246883 -0.39147,0.587783 -0.39147,0.9375 0.001,0.734693 0.59755,1.328347 1.33387,1.328347 z m 18.7925,-0.978748 c 1.31329,0 2.37934,-1.063854 2.37934,-2.374553 0,-1.310719 -1.06605,-2.371632 -2.37934,-2.371632 -1.31359,0 -2.37695,1.060913 -2.37695,2.371632 0,1.310699 1.06336,2.374553 2.37695,2.374553 z m -21.55786,-0.71121 c 0.6362,0 1.15149,-0.514304 1.15149,-1.149075 0,-0.634774 -0.51529,-1.149077 -1.15149,-1.149077 -0.63605,0 -1.15154,0.514303 -1.15154,1.149077 0,0.634771 0.51549,1.149075 1.15154,1.149075 z m -6.29349,-1.025645 c 0.70095,-0.03225 1.33995,-0.42024 1.69038,-1.025646 0.27386,-0.476073 0.35041,-1.037406 0.20628,-1.566375 -0.14184,-0.529013 -0.48894,-0.978643 -0.963,-1.251938 -0.98949,-0.570133 -2.24993,-0.229234 -2.82143,0.75526 -0.56839,0.984511 -0.23266,2.245262 0.75403,2.815401 0.34456,0.196942 0.73615,0.29387 1.13376,0.273298 z m -6.046111,-0.8493 c 0.700891,-0.03536 1.33702,-0.420251 1.69046,-1.028577 0.27384,-0.473165 0.34746,-1.037403 0.20623,-1.563453 C 9.191528,28.710995 8.846908,28.258409 8.369859,27.985098 7.895715,27.711792 7.330275,27.638308 6.803113,27.779345 6.272983,27.920348 5.81944,28.267189 5.54557,28.74033 c -0.568377,0.987443 -0.229708,2.248178 0.759823,2.815393 0.3416,0.199795 0.736267,0.293872 1.130904,0.27624 z m 20.865591,-0.396734 c 0.96874,0 1.7551,-0.781724 1.7551,-1.74862 0,-0.464326 -0.18266,-0.908088 -0.51248,-1.237218 -0.32967,-0.329164 -0.77754,-0.514292 -1.24262,-0.514292 -0.46532,0 -0.91,0.185048 -1.23999,0.514292 -0.32966,0.32913 -0.51529,0.772892 -0.51253,1.237218 0,0.966896 0.78642,1.74862 1.75252,1.74862 z m -4.41462,-0.44084 c 0.4065,0 0.79792,-0.1617 1.08381,-0.449634 0.28858,-0.285057 0.44762,-0.675933 0.44762,-1.078557 0,-0.405543 -0.159,-0.796401 -0.44762,-1.081477 -0.28589,-0.288008 -0.67731,-0.449625 -1.08381,-0.449625 -0.84521,0.0021 -1.52863,0.687675 -1.52863,1.531102 0,0.840504 0.68342,1.525268 1.52863,1.528191 z m 9.5447,-0.182091 c 0.54775,0 1.07493,-0.217476 1.46087,-0.602446 0.38877,-0.387921 0.6065,-0.911049 0.6065,-1.457656 0,-0.546605 -0.21773,-1.072661 -0.6065,-1.457651 -0.38594,-0.387924 -0.91312,-0.605389 -1.46087,-0.605389 -0.54771,0 -1.07193,0.217465 -1.4607,0.605389 -0.38566,0.38499 -0.60375,0.911046 -0.60375,1.457651 0,0.546607 0.21809,1.069735 0.60375,1.457656 0.38877,0.38497 0.91299,0.602446 1.4607,0.602446 z M 2.629969,29.989465 C 3.333814,29.957205 3.972879,29.569221 4.323336,28.960873 4.59723,28.48774 4.673812,27.923481 4.529543,27.394485 4.388268,26.86552 4.040648,26.415859 3.566516,26.142553 2.576981,25.575373 1.316505,25.913336 0.74517498,26.89783 c -0.568375,0.987443 -0.23266,2.245255 0.75394002,2.815391 0.344543,0.196943 0.736237,0.293872 1.130895,0.276244 z m 17.6231,-0.243929 c 0.35326,0 0.69224,-0.138158 0.94223,-0.387912 0.25041,-0.249821 0.3919,-0.587787 0.3919,-0.940434 -10e-4,-0.731761 -0.59804,-1.32541 -1.33413,-1.32541 -0.73325,0 -1.32523,0.593649 -1.32829,1.32541 0,0.734704 0.59504,1.328346 1.32829,1.328346 z m 18.79808,-0.978676 c 1.3136,0 2.37659,-1.060913 2.37659,-2.371624 0,-1.310727 -1.06299,-2.374574 -2.37659,-2.374574 -1.31359,0 -2.37659,1.063847 -2.37659,2.374574 0,1.310711 1.063,2.371624 2.37659,2.371624 z m -23.83126,-1.296023 c 0.59479,-0.02656 1.13685,-0.355579 1.43737,-0.87282 0.48283,-0.837567 0.19405,-1.907291 -0.64513,-2.38926 -0.83628,-0.481962 -1.90828,-0.193918 -2.39432,0.640674 -0.48294,0.837558 -0.19738,1.907278 0.63919,2.389243 0.29144,0.167385 0.62724,0.249792 0.96289,0.232163 z M 9.173848,26.621535 c 0.59781,-0.02945 1.136721,-0.358541 1.434131,-0.875773 0.48307,-0.834618 0.19737,-1.904343 -0.6390205,-2.389267 C 9.565478,23.124332 9.085448,23.062622 8.637818,23.183112 c -0.450601,0.120593 -0.833442,0.414364 -1.066101,0.816971 -0.482988,0.834633 -0.197355,1.904363 0.642012,2.389275 0.29155,0.167476 0.624379,0.246845 0.960119,0.23216 z m 18.907171,-1.39006 c 0.22366,-0.0023 0.44174,-0.0676 0.63588,-0.179377 0.63638,-0.367337 0.85116,-1.178463 0.48597,-1.81324 -0.36795,-0.634789 -1.18371,-0.849327 -1.81695,-0.484913 -0.6362,0.367353 -0.85402,1.181409 -0.48579,1.813264 0.24138,0.420239 0.69474,0.675926 1.18089,0.664162 z m 16.73039,-0.243934 c 0.73632,0 1.44331,-0.293874 1.96449,-0.814038 0.52148,-0.520171 0.81294,-1.225505 0.81294,-1.960196 0,-1.531132 -1.24279,-2.774234 -2.77743,-2.774234 -0.7392,0 -1.44575,0.290923 -1.96713,0.811095 -0.5211,0.520177 -0.81581,1.225489 -0.81581,1.963139 0,0.734691 0.29471,1.440025 0.81581,1.963128 0.52138,0.520114 1.22793,0.811056 1.96713,0.811056 z M 4.370469,24.778907 C 4.965372,24.749487 5.50725,24.420362 5.807634,23.903141 6.290622,23.068503 6.001972,21.998782 5.162674,21.51387 4.323336,21.031906 3.254289,21.319956 2.768362,22.157481 c -0.48298,0.83461 -0.197359,1.904345 0.639079,2.389253 0.291553,0.167389 0.627289,0.246857 0.963028,0.232173 z m 13.24072,-1.23137 c 0.51836,-0.02658 0.99255,-0.311526 1.25173,-0.764084 0.20315,-0.349732 0.25912,-0.767043 0.15306,-1.157901 -0.10259,-0.393804 -0.36216,-0.725892 -0.7126,-0.928664 -0.35329,-0.202755 -0.77171,-0.258622 -1.16346,-0.152844 -0.39145,0.102979 -0.7272,0.361475 -0.93066,0.711211 -0.20299,0.352639 -0.25918,0.769966 -0.15309,1.160812 0.10562,0.390879 0.36236,0.725884 0.71592,0.928673 0.25307,0.147014 0.54463,0.217463 0.83903,0.20277 z m 14.29542,-0.147007 c 0.19419,-0.0047 0.38591,-0.05871 0.55058,-0.155858 0.26493,-0.152837 0.45951,-0.402617 0.53907,-0.696501 0.0781,-0.296822 0.0361,-0.608341 -0.11768,-0.872835 -0.15253,-0.264474 -0.40337,-0.455515 -0.70089,-0.534853 -0.29429,-0.07942 -0.60962,-0.0383 -0.87454,0.11452 -0.54769,0.320321 -0.7364,1.019779 -0.41811,1.56933 0.20889,0.364456 0.60078,0.584861 1.02194,0.576052 z m -20.34438,-0.708246 c 0.5213,-0.02337 0.99243,-0.308578 1.25162,-0.75822 0.20619,-0.349714 0.25912,-0.767012 0.15623,-1.160817 -0.10322,-0.390866 -0.36217,-0.725899 -0.71262,-0.928672 -0.35045,-0.202752 -0.76868,-0.255669 -1.16329,-0.152839 -0.39175,0.105859 -0.72443,0.361488 -0.92779,0.714132 -0.421021,0.728839 -0.1708305,1.66338 0.55956,2.083618 0.25342,0.147014 0.54489,0.217486 0.8364,0.202761 z m 23.78704,-0.01423 c 0.16169,-0.0047 0.32108,-0.04987 0.46214,-0.13214 0.46544,-0.26743 0.62448,-0.861073 0.35649,-1.325403 -0.12934,-0.223347 -0.34162,-0.387921 -0.59192,-0.452575 -0.25024,-0.06757 -0.51523,-0.03217 -0.7392,0.09706 -0.22383,0.129392 -0.38564,0.340904 -0.45339,0.590703 -0.0667,0.249805 -0.03,0.514291 0.0982,0.737643 0.17676,0.305642 0.50961,0.49372 0.86583,0.484903 z m -8.17532,-0.911022 c 0.25918,-0.0047 0.50948,-0.07343 0.73314,-0.202753 0.35044,-0.202772 0.60679,-0.537798 0.71282,-0.928668 0.10539,-0.390855 0.0491,-0.808174 -0.15266,-1.160827 -0.20301,-0.34972 -0.53885,-0.6054 -0.93056,-0.708246 -0.39169,-0.105749 -0.80996,-0.04989 -1.16045,0.152841 -0.73309,0.423193 -0.98367,1.354788 -0.5624,2.086558 0.27986,0.481857 0.80109,0.775734 1.3607,0.761044 z M 6.761833,20.850151 C 7.28014,20.826781 7.751336,20.54157 8.013474,20.091934 8.216686,19.739271 8.272608,19.321963 8.16672,18.931109 8.060773,18.540245 7.804494,18.205214 7.454041,18.002441 7.100617,17.799687 6.682429,17.746764 6.29074,17.8496 c -0.391675,0.10575 -0.727419,0.361471 -0.930617,0.714125 -0.421133,0.728831 -0.170942,1.663372 0.559534,2.08362 0.256253,0.147012 0.54778,0.217478 0.842289,0.202778 z m 13.564676,-0.120599 c 0.45375,-0.01978 0.8631,-0.273307 1.08963,-0.664171 0.1741,-0.305635 0.22409,-0.667109 0.13271,-1.008014 -0.0951,-0.340901 -0.31829,-0.628905 -0.62142,-0.805233 -0.30648,-0.176231 -0.66842,-0.223352 -1.01008,-0.132144 -0.34162,0.09102 -0.63045,0.314455 -0.80696,0.620088 -0.17686,0.30563 -0.22395,0.667112 -0.13271,1.008013 0.0934,0.33796 0.31534,0.628908 0.62168,0.805236 0.22085,0.126293 0.47108,0.188164 0.72714,0.176203 z m 11.51513,-0.296819 c 0.22397,-0.0047 0.44169,-0.06759 0.63631,-0.176198 0.63583,-0.367354 0.85379,-1.181408 0.48585,-1.813253 -0.36839,-0.634782 -1.18094,-0.852256 -1.81715,-0.484899 -0.636,0.36735 -0.85409,1.178459 -0.48589,1.813241 0.2446,0.417311 0.69505,0.670049 1.18088,0.661238 z m 4.06708,-0.261556 c 0.19448,-0.0047 0.37983,-0.05872 0.54775,-0.155858 0.26519,-0.152841 0.45952,-0.402625 0.53913,-0.696506 0.0804,-0.296808 0.0397,-0.608333 -0.1143,-0.872818 -0.1533,-0.264494 -0.40661,-0.458453 -0.70098,-0.534863 -0.29457,-0.07945 -0.6096,-0.03833 -0.87473,0.114575 -0.26524,0.152841 -0.45645,0.405552 -0.53606,0.699428 -0.0804,0.293885 -0.0359,0.608343 0.11707,0.872826 0.20929,0.361542 0.60104,0.581951 1.02195,0.573134 z m -21.63114,-0.29099 c 0.45349,-0.02337 0.86292,-0.273317 1.08967,-0.66712 0.36819,-0.634779 0.14957,-1.445894 -0.48594,-1.813245 -0.30633,-0.173565 -0.6686,-0.223354 -1.01018,-0.129335 -0.33863,0.09097 -0.63027,0.31446 -0.80702,0.617164 -0.36805,0.63477 -0.15009,1.445892 0.48593,1.813239 0.22085,0.129335 0.47411,0.191044 0.72754,0.179352 z m 10.89073,-1.816035 c 0.29427,-0.0047 0.58021,-0.0883 0.8364,-0.23512 0.83625,-0.481962 1.1221,-1.551692 0.639,-2.389253 -0.48278,-0.834624 -1.55502,-1.122623 -2.39436,-0.64066 -0.40346,0.232165 -0.69766,0.614215 -0.81855,1.063847 -0.12107,0.449638 -0.0584,0.92573 0.17712,1.328349 0.32065,0.55543 0.91857,0.890462 1.56078,0.872837 z m -8.20495,0 c 0.39477,-0.01639 0.748,-0.232175 0.94535,-0.570137 0.15276,-0.264495 0.19448,-0.578952 0.11474,-0.87283 -0.0804,-0.296825 -0.27397,-0.546625 -0.5388,-0.699434 -0.55092,-0.314457 -1.25189,-0.126284 -1.56965,0.423178 -0.1533,0.261554 -0.19455,0.576009 -0.11768,0.869897 0.0804,0.296819 0.27395,0.546621 0.53603,0.699446 0.19145,0.108584 0.41229,0.161696 0.63019,0.149808 z m -7.489171,-0.02953 c 0.4535995,-0.01978 0.865911,-0.270369 1.092601,-0.664167 0.17381,-0.302687 0.22087,-0.667106 0.12962,-1.005069 -0.091,-0.340908 -0.31509,-0.631842 -0.61847,-0.808177 -0.306241,-0.173504 -0.671441,-0.223346 -1.010151,-0.13214 -0.34165,0.09411 -0.633127,0.317386 -0.8069,0.620091 -0.176608,0.305625 -0.223827,0.66711 -0.132456,1.008007 0.09119,0.340915 0.315098,0.631849 0.618486,0.805241 0.22088,0.126288 0.47116,0.188164 0.72737,0.176202 z m 26.369861,-0.831784 c 0.22089,-0.0048 0.43875,-0.0676 0.63319,-0.179393 0.30634,-0.17338 0.52724,-0.464321 0.6213,-0.805225 0.0928,-0.337963 0.046,-0.702382 -0.13249,-1.008012 -0.36826,-0.631839 -1.18108,-0.849319 -1.81733,-0.484917 -0.30634,0.176201 -0.52987,0.467296 -0.6213,0.808182 -0.0921,0.33796 -0.046,0.702377 0.13254,1.008012 0.24424,0.417315 0.69811,0.673001 1.18402,0.661242 z m -4.9036,-0.235127 c 0.25636,-0.0047 0.50672,-0.07341 0.72757,-0.202754 0.35325,-0.20278 0.60961,-0.534881 0.71574,-0.925734 0.10259,-0.393809 0.0491,-0.81112 -0.1533,-1.160839 -0.20296,-0.352661 -0.53871,-0.608335 -0.93051,-0.714134 -0.39454,-0.102985 -0.81277,-0.04987 -1.16319,0.15284 -0.35355,0.202774 -0.60962,0.537815 -0.71565,0.928653 -0.10265,0.390876 -0.0475,0.808182 0.15312,1.160844 0.28275,0.484852 0.80687,0.775798 1.36633,0.761102 z m -18.77749,-0.743553 c 0.3917,-0.01978 0.74521,-0.2351 0.94249,-0.573067 0.15331,-0.264485 0.19432,-0.578946 0.1146,-0.872828 -0.0802,-0.293879 -0.27112,-0.546623 -0.53605,-0.699421 -0.26502,-0.152842 -0.58014,-0.193921 -0.87462,-0.11455 -0.29459,0.07941 -0.54791,0.273301 -0.70093,0.537802 -0.15326,0.264498 -0.19434,0.576009 -0.11494,0.872841 0.0803,0.293876 0.27092,0.543669 0.53584,0.696489 0.19143,0.111815 0.41238,0.161695 0.63329,0.152839 z m 2.60038,-1.040339 c 0.33002,-0.01425 0.63025,-0.196964 0.79817,-0.481965 0.26798,-0.464342 0.10529,-1.057982 -0.35936,-1.325399 -0.22368,-0.132142 -0.48863,-0.167366 -0.73918,-0.09981 -0.25026,0.06759 -0.46225,0.229219 -0.59184,0.452582 -0.1296,0.223343 -0.16498,0.487845 -0.0967,0.73764 0.0674,0.249797 0.22967,0.461384 0.45344,0.590689 0.16499,0.09411 0.35054,0.138153 0.536,0.126285 z m 7.03588,-0.76996 c 0.34462,-0.0077 0.68315,-0.105765 0.98363,-0.279178 0.98643,-0.570133 1.32803,-1.827936 0.7567,-2.815397 -0.27388,-0.473147 -0.72419,-0.819927 -1.25462,-0.960981 -0.52981,-0.144 -1.09256,-0.0676 -1.56965,0.20575 -0.47408,0.273311 -0.81875,0.722963 -0.96004,1.251937 -0.14188,0.529006 -0.0666,1.093241 0.20629,1.56639 0.37708,0.652424 1.08074,1.046222 1.83771,1.031521 z m 13.13775,-0.675934 c 0.25919,-0.0047 0.50942,-0.07341 0.73338,-0.202772 0.35044,-0.202768 0.60962,-0.534866 0.71257,-0.928662 0.10562,-0.39087 0.0491,-0.808175 -0.15287,-1.157882 -0.20303,-0.352674 -0.53583,-0.608348 -0.93066,-0.714138 -0.39145,-0.105744 -0.80975,-0.0499 -1.16019,0.15284 -0.35354,0.202774 -0.6096,0.537808 -0.71564,0.928667 -0.10552,0.390881 -0.0491,0.808176 0.15261,1.160847 0.27988,0.481926 0.80106,0.775799 1.36076,0.761101 z m -6.00792,-0.473127 c 0.29464,-0.0047 0.58321,-0.0883 0.83626,-0.232173 0.40373,-0.235122 0.69831,-0.617163 0.81582,-1.063844 0.12182,-0.449652 0.0586,-0.928682 -0.17695,-1.331302 -0.48296,-0.834622 -1.55503,-1.1196866 -2.39437,-0.637724 -0.83652,0.484925 -1.12514,1.554646 -0.642,2.389259 0.32098,0.555401 0.91865,0.890419 1.56072,0.875736 z m -11.97728,-2.215882 c 0.39748,-0.0098 0.78626,-0.120578 1.13087,-0.317392 0.54775,-0.31445 0.94509,-0.834624 1.1102,-1.4429428 0.16448,-0.6083445 0.0804,-1.2548909 -0.23861,-1.8015127 -0.31527,-0.5466056 -0.83327,-0.9433584 -1.44288,-1.1049835 -0.60962,-0.1646941 -1.26043,-0.079423 -1.80555,0.2380419 -1.13663,0.6553418 -1.52534,2.1041968 -0.86877,3.2385785 0.43307,0.7523576 1.24596,1.2078776 2.11474,1.1902316 z m 15.97951,-1.010933 c 0.29452,-0.0077 0.58044,-0.088303 0.8364,-0.2380445 0.83656,-0.4819655 1.12202,-1.5516814 0.63906,-2.3892422 -0.48284,-0.8346287 -1.55502,-1.1226303 -2.39412,-0.6406685 -0.83938,0.4819619 -1.12515,1.5516842 -0.64205,2.3892495 0.31797,0.5553782 0.9187,0.8933417 1.56071,0.8786457 z m -7.37138,-0.4261258 c 0.34761,-0.00774 0.68616,-0.1029865 0.98668,-0.2762443 0.98644,-0.5671841 1.3253,-1.8279494 0.75696,-2.8153817 -0.27419,-0.4731616 -0.72756,-0.81992 -1.25474,-0.9609948 -0.52999,-0.140992 -1.0954,-0.06759 -1.56972,0.2057588 -0.47421,0.2733093 -0.82157,0.7258913 -0.96285,1.2548609 -0.14189,0.5260438 -0.0678,1.0903047 0.20876,1.5634495 0.37726,0.6523869 1.081,1.0461784 1.8349,1.0285389 z M 10.454879,8.5597591 c 0.46236,-0.00984 0.91884,-0.1409909 1.31936,-0.3732108 1.3282,-0.7640942 1.7848,-2.4597921 1.01908,-3.7852118 C 12.024549,3.0759359 10.325279,2.6204128 8.997148,3.3874308 7.668902,4.1515339 7.21535,5.8472389 7.981077,7.1726521 8.487624,8.0512667 9.435908,8.5831923 10.454879,8.5596802 Z m 19.10736,-2.1777217 c 0.34474,-0.00774 0.68311,-0.1029632 0.98351,-0.276258 0.98961,-0.5671814 1.32841,-1.8279355 0.75707,-2.8153738 -0.27388,-0.473179 -0.72442,-0.8199218 -1.25468,-0.9609838 -0.52993,-0.141021 -1.0925,-0.06741 -1.56978,0.205751 -0.47389,0.2733104 -0.81856,0.7229537 -0.96004,1.2519238 -0.14177,0.5289997 -0.0666,1.0932549 0.20623,1.5663972 0.37988,0.6523529 1.08363,1.0461444 1.83771,1.0285265 z m -8.8499,-0.1351456 c 0.39765,-0.00773 0.78942,-0.1206155 1.13091,-0.3174069 1.13966,-0.6553464 1.52843,-2.1041935 0.87473,-3.2414851 -0.31496,-0.543701 -0.83639,-0.943351 -1.446,-1.10793 -0.60961,-0.161688 -1.25757,-0.0766 -1.80507,0.238041 -0.54794,0.314453 -0.94548,0.834592 -1.10759,1.4429356 -0.16433,0.6083232 -0.0776,1.2548763 0.23879,1.8014945 0.43575,0.7493947 1.24544,1.2049034 2.11423,1.1843509 z"
       id="g987" />
  </g>
  <metadata
     id="metadata35">
    <rdf:RDF>
      <cc:Work
         rdf:about="">
        <dc:format>image/svg+xml</dc:format>
        <dc:type
           rdf:resource="http://purl.org/dc/dcmitype/StillImage" />
        <dc:title />
      </cc:Work>
    </rdf:RDF>
  </metadata>
  <sodipodi:namedview
     pagecolor="#ffffff"
     bordercolor="#666666"
     borderopacity="1"
     objecttolerance="10"
     gridtolerance="10"
     guidetolerance="10"
     inkscape:pageopacity="0"
     inkscape:pageshadow="2"
     inkscape:window-width="1920"
     inkscape:window-height="1007"
     id="namedview33"
     showgrid="false"
     inkscape:zoom="3.4766084"
     inkscape:cx="43.232139"
     inkscape:cy="52.70876"
     inkscape:window-x="0"
     inkscape:window-y="0"
     inkscape:window-maximized="1"
     inkscape:current-layer="svg2"
     inkscape:document-rotation="0">
    <inkscape:grid
       type="xygrid"
       id="grid948" />
  </sodipodi:namedview>
  <defs
     id="defs4">
    <linearGradient
       inkscape:collect="always"
       id="linearGradient840">
      <stop
         style="stop-color:#00dddd;stop-opacity:1"
         offset="0"
         id="stop836" />
      <stop
         style="stop-color:#006498;stop-opacity:1"
         offset="1"
         id="stop838" />
    </linearGradient>
    <linearGradient
       id="linearGradient3888"
       x1="1"
       x2="47"
       gradientUnits="userSpaceOnUse">
      <stop
         style="stop-color:#d64937;stop-opacity:1"
         id="stop7" />
      <stop
         offset="1"
         style="stop-color:#d95747;stop-opacity:1"
         id="stop9" />
    </linearGradient>
    <linearGradient
       inkscape:collect="always"
       xlink:href="#linearGradient840"
       id="linearGradient842"
       x1="24.709208"
       y1="45.627953"
       x2="24.540751"
       y2="2.2076595"
       gradientUnits="userSpaceOnUse" />
  </defs>
</svg>
